# AST/ASF file generated using VICON BodyLanguage
# -----------------------------------------------
:version 1.10
:name VICON
:units
  mass 1.0
  length 0.45
  angle deg
:documentation
   .ast/.asf automatically generated from VICON data using
   VICON BodyBuilder and BodyLanguage model FoxedUp or BRILLIANT.MOD
:root
   order TX TY TZ RX RY RZ
   axis XYZ
   position 0 0 0  
   orientation 0 0 0 
:bonedata
  begin
     id 1 
     name lhipjoint
     direction 0.570549 -0.739093 0.358072 
     length 2.41801 
     axis 0 0 0  XYZ
  end
  begin
     id 2 
     name lfemur
     direction 0.34202 -0.939693 0  
     length 7.44434  
     axis 0 0 20  XYZ
    dof rx ry rz
    limits (-160.0 20.0)
           (-70.0 70.0)
           (-60.0 70.0)
  end
  begin
     id 3 
     name ltibia
     direction 0.34202 -0.939693 0   
     length 7.60047   
     axis 0 0 20   XYZ
    dof rx
    limits (-10.0 170.0)
  end
  begin
     id 4 
     name lfoot
     direction 0.0909041 -0.249757 0.964032   
     length 2.03437   
     axis -90 7.62852e-016 20   XYZ
    dof rx rz
    limits (-45.0 90.0)
           (-70.0 20.0)
  end
  begin
     id 5 
     name ltoes
     direction 1.53547e-011 -4.2174e-011 1   
     length 1.02054   
     axis -90 7.62852e-016 20   XYZ
    dof rx
    limits (-90.0 20.0)
  end
  begin
     id 6 
     name rhipjoint
     direction -0.558096 -0.746754 0.361784   
     length 2.3932  
     axis 0 0 0  XYZ 
  end
  begin
     id 7 
     name rfemur
     direction -0.34202 -0.939693 0   
     length 7.3886   
     axis 0 0 -20   XYZ
    dof rx ry rz
    limits (-160.0 20.0)
           (-70.0 70.0)
           (-70.0 60.0)
  end
  begin
     id 8 
     name rtibia
     direction -0.34202 -0.939693 0   
     length 7.4839   
     axis 0 0 -20   XYZ
    dof rx
    limits (-10.0 170.0)
 end
 begin
     id 9 
     name rfoot
     direction -0.114619 -0.314914 0.942174   
     length 2.25127  
     axis -90 -7.62852e-016 -20   XYZ
    dof rx rz
    limits (-45.0 90.0)
           (-20.0 70.0)
  end
  begin
     id 10 
     name rtoes
     direction -1.53518e-011 -4.21881e-011 1   
     length 1.11821   
     axis -90 -7.62852e-016 -20   XYZ
    dof rx
    limits (-90.0 20.0)
  end
  begin
     id 11 
     name lowerback
     direction -0.00902269 0.996426 -0.0839821   
     length 2.25052   
     axis 0 0 0   XYZ
    dof rx ry rz
    limits (-20.0 45.0)
           (-30.0 30.0)
           (-30.0 30.0)
  end
  begin
     id 12 
     name upperback
     direction 0.0370973 0.999169 -0.0168941   
     length 2.24876   
     axis 0 0 0   XYZ
    dof rx ry rz
    limits (-20.0 45.0)
           (-30.0 30.0)
           (-30.0 30.0)
  end
  begin
     id 13 
     name thorax
     direction 0.0402726 0.998931 0.0227027   
     length 2.26408   
     axis 0 0 0   XYZ
    dof rx ry rz
    limits (-20.0 45.0)
           (-30.0 30.0)
           (-30.0 30.0)
  end
  begin
     id 14 
     name lowerneck
     direction -0.0733697 0.98508 0.155675   
     length 1.58204   
     axis 0 0 0   XYZ
    dof rx ry rz
    limits (-20.0 45.0)
           (-30.0 30.0)
           (-30.0 30.0)
  end
  begin
     id 15 
     name upperneck
     direction 0.0426554 0.993501 -0.105526   
     length 1.61222   
     axis 0 0 0   XYZ
    dof rx ry rz
    limits (-20.0 45.0)
           (-30.0 30.0)
           (-30.0 30.0)
  end
  begin
     id 16
     name head
     direction 0.020792 0.998384 -0.0528868  
     length 1.61527  
     axis 0 0 0   XYZ
    dof rx ry rz
    limits (-20.0 45.0)
           (-30.0 30.0)
           (-30.0 30.0)
  end
  begin
     id 17 
     name lclavicle
     direction 0.967109 0.155462 -0.201325  
     length 3.59357  
     axis 0 0 0   XYZ
    dof ry rz
    limits (-20.0 10.0)
           (0.0 20.0)
  end
  begin
     id 18 
     name lhumerus
     direction 1 -4.48968e-011 2.38195e-027   
     length 5.38154   
     axis 180 -30 -90   XYZ
    dof rx ry rz
    limits (-60.0 90.0)
           (-90.0 90.0)
           (-90.0 90.0)
  end
  begin
     id 19
     name lradius
     direction 1 -4.48961e-011 4.85371e-027   
     length 3.33312   
     axis 180 -30 -90   XYZ
    dof rx
    limits (-10.0 170.0)
  end
  begin
     id 20
     name lwrist
     direction 1 -4.48961e-011 4.76515e-027   
     length 1.66656   
     axis -3.27502e-015 90 90   XYZ
    dof ry
    limits (-180.0 0.0)
 end
  begin
     id 21 
     name lhand
     direction 1 -4.48951e-011 9.53074e-027   
     length 0.710789   
     axis -6.08098e-015 90 90   XYZ
    dof rx rz
    limits (-90.0 90.0)
           (-45.0 45.0)
  end
  begin
     id 22 
     name lfingers
     direction 1 -4.48953e-011 1.90613e-026   
     length 0.573057   
     axis -1.21619e-014 90 90   XYZ
    dof rx
    limits (0.0 90.0)
  end
  begin
     id 23
     name lthumb
     direction 0.707107 -6.34973e-011 0.707107   
     length 0.822798   
     axis -90 45 -9.86923e-015   XYZ
    dof rx rz
    limits (-45.0 45.0)
           (-45.0 45.0)
  end
  begin
     id 24 
     name rclavicle
     direction -0.9585 0.265289 -0.104398   
     length 3.42039  
     axis 0 0 0   XYZ 
    dof ry rz
    limits (-10.0 20.0)
           (-20.0 0.0)
  end
  begin
     id 25 
     name rhumerus
     direction -1 -4.48977e-011 2.21478e-027  
     length 5.16954   
     axis 180 30 90   XYZ
    dof rx ry rz
    limits (-90.0 60.0)
           (-90.0 90.0)
           (-90.0 90.0)
  end
  begin
     id 26 
     name rradius
     direction -1 -4.48967e-011 5.63677e-027   
     length 3.38287   
     axis 180 30 90   XYZ
    dof rx
    limits (-10.0 170.0)
  end
  begin
     id 27 
     name rwrist
     direction -1 -4.48967e-011 4.76501e-027   
     length 1.69144   
     axis -3.27502e-015 -90 -90   XYZ
    dof ry
    limits (-180.0 0.0)
  end
  begin
     id 28
     name rhand
     direction -1 -4.48902e-011 9.53292e-027   
     length 0.817967   
     axis -6.08098e-015 -90 -90   XYZ
    dof rx rz
    limits (-90.0 90.0)
           (-45.0 45.0)
  end
  begin
     id 29
     name rfingers
     direction -1 -4.49012e-011 1.90561e-026   
     length 0.659466   
     axis -1.21619e-014 -90 -90   XYZ
    dof rx
    limits (0.0 90.0)
  end
  begin
     id 30
     name rthumb
     direction -0.707107 -6.34944e-011 0.707107   
     length 0.946865   
     axis -90 -45 9.86923e-015   XYZ
    dof rx rz
    limits (-45.0 45.0)
           (-45.0 45.0)
  end
:hierarchy
  begin
    root lhipjoint rhipjoint lowerback
    lhipjoint lfemur
    lfemur ltibia
    ltibia lfoot
    lfoot ltoes
    rhipjoint rfemur
    rfemur rtibia
    rtibia rfoot
    rfoot rtoes
    lowerback upperback
    upperback thorax
    thorax lowerneck lclavicle rclavicle
    lowerneck upperneck
    upperneck head
    lclavicle lhumerus
    lhumerus lradius
    lradius lwrist
    lwrist lhand lthumb
    lhand lfingers
    rclavicle rhumerus
    rhumerus rradius
    rradius rwrist
    rwrist rhand rthumb
    rhand rfingers
  end

#!OML:ASF F:\twosubjects\two\wednesday\Session 1\Justin1.ASF
:FULLY-SPECIFIED
:DEGREES
93
root -3.8127 17.7517 12.133 -169.838 -11.6648 -184.082
lowerback 6.01884 -2.84891 -8.52004
upperback -1.8259 -4.39607 2.03783
thorax -4.50239 -1.90793 7.34464
lowerneck -17.1816 -4.47945 -12.1396
upperneck 12.3819 -3.62882 2.50958
head 6.8774 -2.15406 2.35689
rclavicle 1.07841e-014 2.3059e-014
rhumerus -40.8632 -58.7378 -20.6835
rradius 85.9917
rwrist -37.7045
rhand -40.1269 36.0309
rfingers 7.12502
rthumb -13.0902 6.46174
lclavicle 1.07841e-014 2.3059e-014
lhumerus -27.9202 6.88594 77.2359
lradius 49.9843
lwrist -3.2859
lhand -3.64466 36.8705
lfingers 7.12502
lthumb 22.0952 65.6281
rfemur -37.3827 4.93084 13.4597
rtibia 43.478
rfoot -9.17936 -5.17181
rtoes 0.644994
lfemur -9.25538 -3.52884 -29.0551
ltibia 23.0085
lfoot -16.1808 -17.1668
ltoes 19.594
94
root -3.82984 17.7459 12.0046 -169.655 -12.2618 -184.318
lowerback 6.05568 -2.92418 -8.69355
upperback -1.91687 -4.52551 1.87902
thorax -4.59648 -1.96117 7.28944
lowerneck -16.9475 -4.54866 -12.2313
upperneck 12.3487 -3.785 2.91741
head 6.84808 -2.19271 2.49187
rclavicle 3.00662e-014 6.75868e-015
rhumerus -39.274 -59.3048 -20.8135
rradius 86.7466
rwrist -37.3345
rhand -40.4821 36.0704
rfingers 7.12502
rthumb -13.4325 6.52345
lclavicle 3.00662e-014 6.75868e-015
lhumerus -27.9137 6.90754 77.019
lradius 50.1506
lwrist -3.47286
lhand -3.58445 36.4423
lfingers 7.12502
lthumb 22.153 65.193
rfemur -37.6441 4.36397 13.5554
rtibia 41.4574
rfoot -8.1636 -5.24164
rtoes 3.01929
lfemur -8.68038 -3.44835 -29.1705
ltibia 22.5139
lfoot -15.6872 -18.0225
ltoes 20.4539
95
root -3.84577 17.7429 11.873 -169.679 -12.9474 -184.297
lowerback 6.16314 -2.96866 -8.70759
upperback -1.94139 -4.59854 1.84572
thorax -4.67167 -1.99235 7.27635
lowerneck -16.2931 -4.66821 -12.5115
upperneck 11.8942 -4.03771 3.40674
head 6.62619 -2.27281 2.67789
rclavicle -1.9133e-014 7.95139e-015
rhumerus -37.4984 -59.9339 -20.9275
rradius 87.4297
rwrist -36.9211
rhand -40.7881 35.7277
rfingers 7.12502
rthumb -13.7274 6.20046
lclavicle -1.9133e-014 7.95139e-015
lhumerus -27.9935 6.53416 76.9703
lradius 50.4814
lwrist -3.33107
lhand -3.78955 36.5697
lfingers 7.12502
lthumb 21.956 65.3437
rfemur -37.583 4.05353 13.8575
rtibia 39.4482
rfoot -6.99951 -5.34568
rtoes 5.68112
lfemur -7.81963 -3.73123 -28.9976
ltibia 21.8751
lfoot -15.3542 -18.3443
ltoes 20.4768
96
root -3.86274 17.7364 11.739 -169.664 -13.6092 -184.208
lowerback 6.20847 -3.03481 -8.64656
upperback -1.9572 -4.68493 1.87919
thorax -4.69965 -2.03452 7.2879
lowerneck -15.4423 -4.78041 -12.3042
upperneck 10.8745 -4.29424 2.92768
head 6.16141 -2.40879 2.47415
rclavicle -2.06736e-014 -3.97569e-015
rhumerus -34.9858 -60.6427 -21.5735
rradius 87.8998
rwrist -36.7004
rhand -40.8414 35.826
rfingers 7.12502
rthumb -13.7788 6.30229
lclavicle -2.06736e-014 -3.97569e-015
lhumerus -28.0516 6.07893 77.0207
lradius 50.7626
lwrist -3.06195
lhand -3.87376 36.6899
lfingers 7.12502
lthumb 21.8752 65.4733
rfemur -37.5631 3.82033 14.2041
rtibia 37.3779
rfoot -5.73386 -5.37639
rtoes 6.63582
lfemur -7.03168 -4.10402 -28.7455
ltibia 21.2613
lfoot -15.2702 -18.5794
ltoes 21.1125
97
root -3.88131 17.7313 11.6051 -169.523 -14.229 -184.203
lowerback 6.29182 -3.1341 -8.65611
upperback -2.06519 -4.82949 1.91377
thorax -4.83133 -2.09467 7.35269
lowerneck -15.8688 -4.94484 -13.001
upperneck 11.6076 -4.42091 3.83904
head 6.51522 -2.43712 2.85972
rclavicle 2.23136e-014 1.55052e-014
rhumerus -31.9135 -61.2587 -22.8358
rradius 88.3444
rwrist -36.5475
rhand -40.7356 35.8
rfingers 7.12502
rthumb -13.6768 6.26937
lclavicle 2.23136e-014 1.55052e-014
lhumerus -28.076 5.8853 77.0547
lradius 50.9239
lwrist -2.99298
lhand -3.38088 36.8635
lfingers 7.12502
lthumb 22.3484 65.5909
rfemur -37.6804 3.16259 14.6346
rtibia 35.2891
rfoot -4.61471 -5.11653
rtoes 6.73344
lfemur -6.37866 -4.0943 -28.5771
ltibia 20.6994
lfoot -15.1802 -19.288
ltoes 22.1988
98
root -3.89774 17.7222 11.4709 -169.412 -14.7795 -184.18
lowerback 6.41334 -3.1098 -8.60094
upperback -2.20224 -4.81441 1.83202
thorax -5.06031 -2.07287 7.25031
lowerneck -15.7351 -5.15274 -12.799
upperneck 11.7926 -4.74898 3.70084
head 6.57255 -2.6037 2.74758
rclavicle 3.94091e-014 9.93923e-015
rhumerus -29.6967 -61.7905 -23.4271
rradius 88.9215
rwrist -36.2561
rhand -40.732 35.25
rfingers 7.12502
rthumb -13.6734 5.71919
lclavicle 3.94091e-014 9.93923e-015
lhumerus -28.105 5.47955 76.9944
lradius 51.0469
lwrist -2.97693
lhand -3.07731 37.171
lfingers 7.12502
lthumb 22.6398 65.8631
rfemur -37.7822 2.35221 15.2243
rtibia 33.2095
rfoot -3.87079 -4.84609
rtoes 6.38658
lfemur -5.73345 -3.87919 -28.38
ltibia 20.1744
lfoot -14.8971 -20.1382
ltoes 23.1959
